# xmcd
#
# Track frame offsets: 
#        150
#        13351
#        28127
#        39899
#        61281
#        74540
#        96398
#        107951
#        126878
#        144645
#        160134
#        177772
#
# Disc length: 2763 seconds
#
# Revision: 0
# Processed by: cddbd v1.5.2PL0 Copyright (c) Steve Scherf et al.
# Submitted via: ExactAudioCopy v1.0b1
#
DISCID=ac0ac90c
DTITLE=Mark Chesnutt - Outlaw
DYEAR=2010
DGENRE=Country
TTITLE0=Black Rose
TTITLE1=Whiskey Bent and Hell Bound
TTITLE2=Only Daddy That'll Walk the Line
TTITLE3=A Couple More Years
TTITLE4=Need a Little Time Off for Bad Behavior
TTITLE5=Sunday Mornin' Comin' Down
TTITLE6=Are You Ready for the Country
TTITLE7=Lovin' Her Was Easier
TTITLE8=Country State of Mind
TTITLE9=Freedom to Stay
TTITLE10=Bloody Mary Morning
TTITLE11=Desperados Waiting for a Train
EXTD=
EXTT0=
EXTT1=
EXTT2=
EXTT3=
EXTT4=
EXTT5=
EXTT6=
EXTT7=
EXTT8=
EXTT9=
EXTT10=
EXTT11=
PLAYORDER=
